<svg width="47" height="35" viewBox="0 0 47 35" fill="none" xmlns="http://www.w3.org/2000/svg">
<g clip-path="url(#clip0_471_1068)">
<path d="M46.27 11.2961L45.391 17.4655L44.2808 25.1771L43.1856 32.8887C43.1856 33.2975 43.0231 33.6902 42.7337 33.979C42.4443 34.2685 42.0522 34.4309 41.6428 34.4309H4.62715C3.77509 34.4309 3.08442 33.7402 3.08442 32.8887L1.98922 25.1771L0.878957 17.4655L0 11.2961C0 10.444 0.690685 9.75391 1.54218 9.75391H30.8463V23.9433C30.8463 24.0455 30.8871 24.1434 30.9592 24.216C31.0313 24.2881 31.1297 24.3289 31.232 24.3289C31.3342 24.3257 31.4321 24.2881 31.5095 24.2208L34.3475 20.1956L34.4244 20.0725C34.4971 19.9972 34.5971 19.9541 34.702 19.9541C34.8069 19.9541 34.907 19.9966 34.9796 20.0719L35.0565 20.1951L37.8171 24.0972L37.894 24.2204C37.9714 24.2876 38.0699 24.3258 38.1721 24.329C38.2743 24.329 38.3728 24.2881 38.4449 24.2161C38.5169 24.1434 38.5578 24.0455 38.5578 23.9433V9.75398H44.7272C45.1361 9.75398 45.5287 9.91643 45.8176 10.2058C46.107 10.4947 46.27 10.8873 46.27 11.2961Z" fill="white"/>
<path d="M43.1846 5.12668V8.21105L38.5574 8.21159V7.44021C38.5574 7.23579 38.4761 7.03945 38.3314 6.89476C38.1867 6.75006 37.9909 6.66884 37.786 6.66884H31.6171C31.1911 6.66884 30.8457 7.01418 30.8457 7.44022V8.2116H3.08398V2.04218C3.08398 1.19012 3.77467 0.5 4.62672 0.5H15.4227L16.3479 0.808229H16.3942C17.4431 1.48708 18.3221 3.02931 19.448 3.4456C19.6384 3.52844 19.8423 3.57577 20.0499 3.58438H41.6424C42.0518 3.58438 42.4433 3.74683 42.7327 4.03622C43.0221 4.32509 43.1846 4.71786 43.1846 5.12668Z" fill="white"/>
</g>
<defs>
<clipPath id="clip0_471_1068">
<rect width="47" height="34" fill="white" transform="translate(0 0.5)"/>
</clipPath>
</defs>
</svg>
