<svg width="114" height="54" viewBox="0 0 114 54" fill="none" xmlns="http://www.w3.org/2000/svg">
<g clip-path="url(#clip0_471_1040)">
<path d="M29.4883 14C29.0586 12.6849 28.4922 11.5065 27.7891 10.4648C27.099 9.41015 26.2721 8.51172 25.3086 7.76953C24.3581 7.02734 23.2774 6.46094 22.0664 6.07031C20.8555 5.67969 19.5274 5.48437 18.082 5.48437C15.7123 5.48437 13.5573 6.09635 11.6172 7.32031C9.67709 8.54427 8.13412 10.3477 6.98828 12.7305C5.84245 15.1133 5.26953 18.0365 5.26953 21.5C5.26953 24.9635 5.84896 27.8867 7.00781 30.2695C8.16667 32.6523 9.73568 34.4557 11.7149 35.6797C13.694 36.9036 15.9206 37.5156 18.3945 37.5156C20.6862 37.5156 22.7044 37.0273 24.4492 36.0508C26.207 35.0612 27.5742 33.668 28.5508 31.8711C29.5404 30.0612 30.0352 27.9323 30.0352 25.4844L31.5195 25.7969H19.4883V21.5H34.7227V25.7969C34.7227 29.0911 34.0195 31.9557 32.6133 34.3906C31.2201 36.8255 29.293 38.7135 26.832 40.0547C24.3841 41.3828 21.5716 42.0469 18.3945 42.0469C14.8529 42.0469 11.7409 41.2135 9.0586 39.5469C6.38933 37.8802 4.30599 35.5104 2.8086 32.4375C1.32422 29.3646 0.582031 25.7187 0.582031 21.5C0.582031 18.3359 1.00521 15.4909 1.85156 12.9648C2.71094 10.4258 3.92188 8.26432 5.48438 6.48047C7.04688 4.69661 8.89584 3.32943 11.0313 2.37891C13.1667 1.42839 15.5169 0.953125 18.082 0.953125C20.1914 0.953125 22.1576 1.27214 23.9805 1.91015C25.8164 2.53515 27.4505 3.42708 28.8828 4.58594C30.3281 5.73177 31.5326 7.10547 32.4961 8.70703C33.4596 10.2956 34.1237 12.0599 34.4883 14H29.4883ZM61.2998 29.2344V11.5H65.9092V41.5H61.2998V36.4219H60.9873C60.2842 37.9453 59.1904 39.2409 57.7061 40.3086C56.2217 41.3633 54.3467 41.8906 52.0811 41.8906C50.2061 41.8906 48.5394 41.4805 47.0811 40.6602C45.6227 39.8268 44.4769 38.5768 43.6436 36.9102C42.8102 35.2305 42.3936 33.1146 42.3936 30.5625V11.5H47.0029V30.25C47.0029 32.4375 47.6149 34.1823 48.8389 35.4844C50.0759 36.7865 51.6514 37.4375 53.5654 37.4375C54.7113 37.4375 55.8766 37.1445 57.0615 36.5586C58.2595 35.9727 59.2621 35.0742 60.0693 33.8633C60.8897 32.6523 61.2998 31.1094 61.2998 29.2344ZM78.9609 1.5V41.5H74.3516V1.5H78.9609ZM87.4033 52.75V11.5H91.8565V16.2656H92.4033C92.7419 15.7448 93.2106 15.0807 93.8096 14.2734C94.4216 13.4531 95.294 12.724 96.4268 12.0859C97.5726 11.4349 99.1221 11.1094 101.075 11.1094C103.601 11.1094 105.827 11.7409 107.754 13.0039C109.681 14.2669 111.185 16.0573 112.266 18.375C113.347 20.6927 113.887 23.4271 113.887 26.5781C113.887 29.7552 113.347 32.5091 112.266 34.8398C111.185 37.1576 109.688 38.9544 107.774 40.2305C105.86 41.4935 103.653 42.125 101.153 42.125C99.2262 42.125 97.6833 41.806 96.5244 41.168C95.3656 40.5169 94.4736 39.7812 93.8486 38.9609C93.2236 38.1276 92.7419 37.4375 92.4033 36.8906H92.0127V52.75H87.4033ZM91.9346 26.5C91.9346 28.7656 92.2666 30.7643 92.9307 32.4961C93.5947 34.2148 94.5648 35.5625 95.8408 36.5391C97.1169 37.5026 98.6794 37.9844 100.528 37.9844C102.455 37.9844 104.063 37.4766 105.352 36.4609C106.654 35.4323 107.631 34.0521 108.282 32.3203C108.946 30.5755 109.278 28.6354 109.278 26.5C109.278 24.3906 108.952 22.4896 108.301 20.7969C107.663 19.0911 106.693 17.7435 105.391 16.7539C104.102 15.7513 102.481 15.25 100.528 15.25C98.6533 15.25 97.0778 15.7253 95.8018 16.6758C94.5257 17.6133 93.5622 18.9284 92.9111 20.6211C92.2601 22.3008 91.9346 24.2604 91.9346 26.5Z" fill="white"/>
<path d="M29.4875 14.0002L29.2023 14.0934L29.2699 14.3002H29.4875V14.0002ZM27.7883 10.465L27.5372 10.6293L27.5396 10.6329L27.7883 10.465ZM25.3078 7.76973L25.1232 8.00619L25.1247 8.0074L25.3078 7.76973ZM30.0344 25.4846L30.0962 25.191L29.7344 25.1148V25.4846H30.0344ZM31.5187 25.7971V26.0971L31.5805 25.5035L31.5187 25.7971ZM19.4875 25.7971H19.1875V26.0971H19.4875V25.7971ZM19.4875 21.5002V21.2002H19.1875V21.5002H19.4875ZM34.7219 21.5002H35.0219V21.2002H34.7219V21.5002ZM32.6125 34.3908L32.3527 34.2408L32.3521 34.2418L32.6125 34.3908ZM2.80782 32.4377L2.53768 32.5682L2.53813 32.5691L2.80782 32.4377ZM23.9797 1.91035L23.8806 2.19352L23.883 2.19435L23.9797 1.91035ZM28.882 4.58614L28.6933 4.81937L28.6957 4.82122L28.882 4.58614ZM32.4953 8.70723L32.2382 8.86189L32.2388 8.86281L32.4953 8.70723ZM34.4875 14.0002V14.3002H34.8491L34.7823 13.9448L34.4875 14.0002ZM29.7727 13.907C29.3352 12.5681 28.7571 11.3641 28.0369 10.2972L27.5396 10.6329C28.2257 11.6493 28.7804 12.8021 29.2023 14.0934L29.7727 13.907ZM28.0393 10.3008C27.3315 9.21903 26.482 8.29548 25.4909 7.53206L25.1247 8.0074C26.0607 8.72835 26.8648 9.60168 27.5372 10.6293L28.0393 10.3008ZM25.4924 7.53327C24.5127 6.76826 23.4003 6.18582 22.1577 5.785L21.9735 6.35602C23.1528 6.73645 24.2019 7.28682 25.1232 8.00619L25.4924 7.53327ZM22.1577 5.785C20.9133 5.38357 19.5536 5.18457 18.0812 5.18457V5.78457C19.4995 5.78457 20.7961 5.9762 21.9735 6.35602L22.1577 5.785ZM18.0812 5.18457C15.6568 5.18457 13.446 5.81156 11.4563 7.06678L11.7765 7.57424C13.667 6.38155 15.7661 5.78457 18.0812 5.78457V5.18457ZM11.4563 7.06678C9.46167 8.32517 7.88359 10.175 6.71714 12.6007L7.25787 12.8607C8.38309 10.5207 9.89095 8.76377 11.7765 7.57424L11.4563 7.06678ZM6.71714 12.6007C5.54673 15.0346 4.96875 18.005 4.96875 21.5002H5.56875C5.56875 18.0683 6.13661 15.1924 7.25787 12.8607L6.71714 12.6007ZM4.96875 21.5002C4.96875 24.9958 5.55338 27.9667 6.73725 30.4009L7.27682 30.1385C6.14298 27.8072 5.56875 24.9317 5.56875 21.5002H4.96875ZM6.73725 30.4009C7.91741 32.8276 9.52236 34.6772 11.5563 35.935L11.8718 35.4247C9.94744 34.2346 8.41436 32.4775 7.27682 30.1385L6.73725 30.4009ZM11.5563 35.935C13.5859 37.1902 15.8677 37.8158 18.3937 37.8158V37.2158C15.9719 37.2158 13.8006 36.6175 11.8718 35.4247L11.5563 35.935ZM18.3937 37.8158C20.7291 37.8158 22.7992 37.3178 24.595 36.3128L24.3019 35.7892C22.6081 36.7372 20.6417 37.2158 18.3937 37.2158V37.8158ZM24.595 36.3128C26.4027 35.2952 27.8105 33.8602 28.8136 32.0145L28.2868 31.7274C27.3368 33.4755 26.0098 34.8276 24.3019 35.7892L24.595 36.3128ZM28.8136 32.0145C29.8315 30.1529 30.3344 27.9734 30.3344 25.4846H29.7344C29.7344 27.8916 29.2481 29.9692 28.2868 31.7274L28.8136 32.0145ZM29.9726 25.7781L31.4569 26.0906L31.5805 25.5035L30.0962 25.191L29.9726 25.7781ZM31.5187 25.4971H19.4875V26.0971H31.5187V25.4971ZM19.7875 25.7971V21.5002H19.1875V25.7971H19.7875ZM19.4875 21.8002H34.7219V21.2002H19.4875V21.8002ZM34.4219 21.5002V25.7971H35.0219V21.5002H34.4219ZM34.4219 25.7971C34.4219 29.0478 33.7284 31.8588 32.3527 34.2408L32.8723 34.5409C34.3091 32.0531 35.0219 29.1349 35.0219 25.7971H34.4219ZM32.3521 34.2418C30.9864 36.6286 29.0998 38.4769 26.6877 39.7915L26.9743 40.3186C29.4841 38.9508 31.4521 37.0229 32.8729 34.5398L32.3521 34.2418ZM26.6877 39.7915C24.2895 41.0926 21.528 41.7471 18.3937 41.7471V42.3471C21.6137 42.3471 24.4766 41.6737 26.9743 40.3186L26.6877 39.7915ZM18.3937 41.7471C14.901 41.7471 11.8453 40.9259 9.21615 39.2923L8.89893 39.8015C11.6344 41.5012 14.8031 42.3471 18.3937 42.3471V41.7471ZM9.21615 39.2923C6.59873 37.658 4.55245 35.3331 3.0775 32.3063L2.53813 32.5691C4.05797 35.6881 6.17781 38.1025 8.89893 39.8015L9.21615 39.2923ZM3.07795 32.3072C1.61732 29.2834 0.88125 25.6842 0.88125 21.5002H0.28125C0.28125 25.7537 1.02956 29.4461 2.53768 32.5682L3.07795 32.3072ZM0.88125 21.5002C0.88125 18.3626 1.30091 15.5505 2.13524 13.0603L1.56662 12.8689C0.708242 15.4308 0.28125 18.3096 0.28125 21.5002H0.88125ZM2.13524 13.0603C2.98362 10.5538 4.17592 8.42891 5.70927 6.67834L5.25793 6.283C3.66628 8.10013 2.43699 10.2973 1.56662 12.8689L2.13524 13.0603ZM5.70927 6.67834C7.24358 4.92667 9.05733 3.58578 11.1525 2.65318L10.9085 2.10503C8.73279 3.07348 6.84862 4.46696 5.25793 6.283L5.70927 6.67834ZM11.1525 2.65318C13.2459 1.72135 15.554 1.25332 18.0812 1.25332V0.65332C15.4782 0.65332 13.0859 1.13581 10.9085 2.10503L11.1525 2.65318ZM18.0812 1.25332C20.16 1.25332 22.0923 1.56763 23.8806 2.19352L24.0788 1.6272C22.2212 0.977043 20.2213 0.65332 18.0812 0.65332V1.25332ZM23.883 2.19435C25.6873 2.80858 27.2899 3.68387 28.6933 4.81937L29.0707 4.35291C27.6096 3.1707 25.9439 2.26213 24.0764 1.62636L23.883 2.19435ZM28.6957 4.82122C30.1124 5.9444 31.293 7.29073 32.2382 8.86189L32.7524 8.55257C31.7705 6.9206 30.5423 5.51954 29.0684 4.35105L28.6957 4.82122ZM32.2388 8.86281C33.1825 10.4186 33.8343 12.1487 34.1927 14.0556L34.7823 13.9448C34.4115 11.9715 33.7352 10.1729 32.7518 8.55165L32.2388 8.86281ZM34.4875 13.7002H29.4875V14.3002H34.4875V13.7002ZM61.299 11.5002V11.2002H60.999V11.5002H61.299ZM65.9084 11.5002H66.2084V11.2002H65.9084V11.5002ZM65.9084 41.5002V41.8002H66.2084V41.5002H65.9084ZM61.299 41.5002H60.999V41.8002H61.299V41.5002ZM61.299 36.4221H61.599V36.1221H61.299V36.4221ZM60.9865 36.4221V36.1221H60.7946L60.7141 36.2964L60.9865 36.4221ZM57.7053 40.3088L57.879 40.5534L57.8804 40.5523L57.7053 40.3088ZM47.0803 40.6604L46.9314 40.9208L46.9332 40.9218L47.0803 40.6604ZM42.3928 11.5002V11.2002H42.0928V11.5002H42.3928ZM47.0021 11.5002H47.3021V11.2002H47.0021V11.5002ZM48.8381 35.4846L48.6195 35.6901L48.6206 35.6912L48.8381 35.4846ZM57.0607 36.5588L56.9289 36.2893L56.9278 36.2899L57.0607 36.5588ZM60.0685 33.8635L59.8202 33.6952L59.8189 33.6971L60.0685 33.8635ZM61.599 29.2346V11.5002H60.999V29.2346H61.599ZM61.299 11.8002H65.9084V11.2002H61.299V11.8002ZM65.6084 11.5002V41.5002H66.2084V11.5002H65.6084ZM65.9084 41.2002H61.299V41.8002H65.9084V41.2002ZM61.599 41.5002V36.4221H60.999V41.5002H61.599ZM61.299 36.1221H60.9865V36.7221H61.299V36.1221ZM60.7141 36.2964C60.0346 37.7686 58.9763 39.025 57.5301 40.0653L57.8804 40.5523C59.403 39.4572 60.5322 38.1224 61.2589 36.5478L60.7141 36.2964ZM57.5315 40.0642C56.1091 41.0749 54.299 41.5908 52.0803 41.5908V42.1908C54.3928 42.1908 56.3327 41.6522 57.879 40.5534L57.5315 40.0642ZM52.0803 41.5908C50.2505 41.5908 48.6356 41.191 47.2273 40.3989L46.9332 40.9218C48.4416 41.7703 50.1601 42.1908 52.0803 42.1908V41.5908ZM47.2291 40.3999C45.8277 39.5991 44.721 38.3959 43.9111 36.7762L43.374 37.0437C44.2308 38.7573 45.4161 40.0549 46.9314 40.9208L47.2291 40.3999ZM43.9111 36.7762C43.1044 35.1502 42.6928 33.0844 42.6928 30.5627H42.0928C42.0928 33.1452 42.5141 35.3104 43.374 37.0437L43.9111 36.7762ZM42.6928 30.5627V11.5002H42.0928V30.5627H42.6928ZM42.3928 11.8002H47.0021V11.2002H42.3928V11.8002ZM46.7021 11.5002V30.2502H47.3021V11.5002H46.7021ZM46.7021 30.2502C46.7021 32.496 47.3321 34.3206 48.6195 35.6901L49.0567 35.2791C47.8962 34.0445 47.3021 32.3794 47.3021 30.2502H46.7021ZM48.6206 35.6912C49.9182 37.0571 51.5744 37.7377 53.5646 37.7377V37.1377C51.7268 37.1377 50.2319 36.5162 49.0556 35.278L48.6206 35.6912ZM53.5646 37.7377C54.7632 37.7377 55.9738 37.431 57.1937 36.8277L56.9278 36.2899C55.7778 36.8585 54.6577 37.1377 53.5646 37.1377V37.7377ZM57.1926 36.8283C58.4425 36.2169 59.4842 35.2808 60.3182 34.0299L59.8189 33.6971C59.0383 34.868 58.0748 35.7288 56.9289 36.2893L57.1926 36.8283ZM60.3169 34.0317C61.1792 32.7588 61.599 31.1527 61.599 29.2346H60.999C60.999 31.0664 60.5985 32.5463 59.8202 33.6952L60.3169 34.0317ZM78.9601 1.5002H79.2601V1.2002H78.9601V1.5002ZM78.9601 41.5002V41.8002H79.2601V41.5002H78.9601ZM74.3508 41.5002H74.0508V41.8002H74.3508V41.5002ZM74.3508 1.5002V1.2002H74.0508V1.5002H74.3508ZM78.6601 1.5002V41.5002H79.2601V1.5002H78.6601ZM78.9601 41.2002H74.3508V41.8002H78.9601V41.2002ZM74.6508 41.5002V1.5002H74.0508V41.5002H74.6508ZM74.3508 1.8002H78.9601V1.2002H74.3508V1.8002ZM87.4025 52.7502H87.1025V53.0502H87.4025V52.7502ZM87.4025 11.5002V11.2002H87.1025V11.5002H87.4025ZM91.8557 11.5002H92.1557V11.2002H91.8557V11.5002ZM91.8557 16.2658H91.5557V16.5658H91.8557V16.2658ZM92.4025 16.2658V16.5658H92.5653L92.6541 16.4293L92.4025 16.2658ZM96.426 12.0861L96.5732 12.3475L96.5742 12.347L96.426 12.0861ZM107.774 40.2307L107.939 40.4811L107.94 40.4803L107.774 40.2307ZM96.5236 41.1682L96.3767 41.4297L96.3789 41.431L96.5236 41.1682ZM93.8478 38.9611L93.6078 39.1411L93.6092 39.143L93.8478 38.9611ZM92.4025 36.8908L92.6576 36.7329L92.5696 36.5908H92.4025V36.8908ZM92.0119 36.8908V36.5908H91.7119V36.8908H92.0119ZM92.0119 52.7502V53.0502H92.3119V52.7502H92.0119ZM95.84 36.5393L95.6577 36.7775L95.6593 36.7787L95.84 36.5393ZM108.282 32.3205L108.001 32.2138V32.2149L108.282 32.3205ZM108.301 20.7971L108.02 20.9022L108.021 20.9048L108.301 20.7971ZM105.391 16.7541L105.207 16.9909L105.21 16.993L105.391 16.7541ZM95.801 16.676L95.9786 16.9178L95.9802 16.9166L95.801 16.676ZM87.7025 52.7502V11.5002H87.1025V52.7502H87.7025ZM87.4025 11.8002H91.8557V11.2002H87.4025V11.8002ZM91.5557 11.5002V16.2658H92.1557V11.5002H91.5557ZM91.8557 16.5658H92.4025V15.9658H91.8557V16.5658ZM92.6541 16.4293C92.9878 15.9158 93.4525 15.2573 94.0497 14.4524L93.5683 14.0942C92.9676 14.9038 92.4943 15.5741 92.151 16.1023L92.6541 16.4293ZM94.0497 14.4524C94.6309 13.6734 95.4673 12.9704 96.5732 12.3475L96.2787 11.8247C95.119 12.4779 94.2111 13.2326 93.5683 14.0942L94.0497 14.4524ZM96.5742 12.347C97.6582 11.7311 99.15 11.4096 101.075 11.4096V10.8096C99.0926 10.8096 97.4854 11.1391 96.2778 11.8253L96.5742 12.347ZM101.075 11.4096C103.548 11.4096 105.716 12.0271 107.59 13.255L107.919 12.7532C105.938 11.4551 103.653 10.8096 101.075 10.8096V11.4096ZM107.59 13.255C109.465 14.4842 110.934 16.2291 111.994 18.502L112.538 18.2484C111.436 15.8859 109.898 14.0501 107.919 12.7532L107.59 13.255ZM111.994 18.502C113.053 20.7719 113.587 23.4612 113.587 26.5783H114.187C114.187 23.3934 113.641 20.6139 112.538 18.2484L111.994 18.502ZM113.587 26.5783C113.587 29.7219 113.053 32.4309 111.994 34.7138L112.538 34.9668C113.641 32.5884 114.187 29.7889 114.187 26.5783H113.587ZM111.994 34.7138C110.934 36.9874 109.471 38.7388 107.608 39.9811L107.94 40.4803C109.905 39.1704 111.437 37.3286 112.538 34.9668L111.994 34.7138ZM107.609 39.9803C105.748 41.208 103.6 41.8252 101.153 41.8252V42.4252C103.706 42.4252 105.972 41.7794 107.939 40.4811L107.609 39.9803ZM101.153 41.8252C99.2545 41.8252 97.7672 41.5104 96.6683 40.9054L96.3789 41.431C97.5978 42.102 99.1964 42.4252 101.153 42.4252V41.8252ZM96.6706 40.9066C95.5375 40.2701 94.6806 39.5591 94.0865 38.7793L93.6092 39.143C94.2651 40.0038 95.192 40.7642 96.3767 41.4297L96.6706 40.9066ZM94.0878 38.7811C93.4654 37.9512 92.9895 37.269 92.6576 36.7329L92.1475 37.0487C92.4927 37.6064 92.9803 38.3044 93.6078 39.1411L94.0878 38.7811ZM92.4025 36.5908H92.0119V37.1908H92.4025V36.5908ZM91.7119 36.8908V52.7502H92.3119V36.8908H91.7119ZM92.0119 52.4502H87.4025V53.0502H92.0119V52.4502ZM91.6338 26.5002C91.6338 28.7947 91.97 30.831 92.6498 32.6037L93.21 32.3889C92.5616 30.6981 92.2338 28.737 92.2338 26.5002H91.6338ZM92.6498 32.6037C93.3308 34.3663 94.3317 35.7627 95.6577 36.7775L96.0224 36.301C94.7963 35.3627 93.8572 34.0638 93.21 32.3889L92.6498 32.6037ZM95.6593 36.7787C96.9952 37.7875 98.6239 38.2846 100.528 38.2846V37.6846C98.7332 37.6846 97.2369 37.2181 96.0208 36.2998L95.6593 36.7787ZM100.528 38.2846C102.51 38.2846 104.187 37.7611 105.538 36.6968L105.166 36.2255C103.939 37.1924 102.4 37.6846 100.528 37.6846V38.2846ZM105.538 36.6968C106.888 35.6306 107.895 34.2029 108.563 32.4261L108.001 32.2149C107.367 33.9016 106.421 35.2345 105.166 36.2255L105.538 36.6968ZM108.562 32.4272C109.241 30.6438 109.578 28.6669 109.578 26.5002H108.978C108.978 28.6043 108.651 30.5076 108.001 32.2138L108.562 32.4272ZM109.578 26.5002C109.578 24.3599 109.248 22.4216 108.581 20.6894L108.021 20.9048C108.657 22.558 108.978 24.4217 108.978 26.5002H109.578ZM108.582 20.692C107.927 18.9394 106.925 17.5429 105.573 16.5153L105.21 16.993C106.462 17.9444 107.4 19.2433 108.02 20.9022L108.582 20.692ZM105.575 16.5173C104.224 15.4661 102.534 14.9502 100.528 14.9502V15.5502C102.428 15.5502 103.98 16.0369 105.207 16.9909L105.575 16.5173ZM100.528 14.9502C98.5999 14.9502 96.9584 15.4397 95.6218 16.4354L95.9802 16.9166C97.1956 16.0112 98.7052 15.5502 100.528 15.5502V14.9502ZM95.6233 16.4342C94.2946 17.4104 93.2989 18.7753 92.6303 20.5136L93.1901 20.7297C93.8237 19.0826 94.7552 17.8166 95.9786 16.9178L95.6233 16.4342ZM92.6303 20.5136C91.9631 22.2351 91.6338 24.2322 91.6338 26.5002H92.2338C92.2338 24.289 92.5552 22.3675 93.1901 20.7297L92.6303 20.5136Z" fill="white"/>
</g>
<defs>
<clipPath id="clip0_471_1040">
<rect width="114" height="53" fill="white" transform="translate(0 0.5)"/>
</clipPath>
</defs>
</svg>
