<svg width="36" height="54" viewBox="0 0 36 54" fill="none" xmlns="http://www.w3.org/2000/svg">
<g clip-path="url(#clip0_471_1053)">
<path d="M15.232 29.961V27.9523C15.232 25.2182 17.4636 23.0421 20.1422 23.0421C21.4814 23.0421 22.709 23.5442 23.6574 24.4927C24.1039 24.9391 24.4942 25.4969 24.7177 26.1106C27.6192 23.4325 29.4606 19.5268 29.4606 15.2303C29.4606 7.08379 22.8768 0.5 14.7303 0.5C6.58379 0.5 0 7.08379 0 15.2303C0 23.3768 6.58379 29.9606 14.7303 29.9606C14.8969 29.961 15.0642 29.961 15.232 29.961ZM13.2233 20.5313C12.7769 20.5313 12.2748 20.3639 11.9401 20.0292L8.03441 16.1235C7.30893 15.398 7.30893 14.2822 8.03441 13.5567C8.75988 12.8311 9.87569 12.8312 10.6012 13.5567L13.1681 16.1235L18.8034 10.4882C19.5289 9.76269 20.6447 9.76269 21.3703 10.4882C22.0958 11.2136 22.0958 12.3295 21.3703 13.055L14.4506 20.0292C14.1159 20.3639 13.6693 20.5313 13.2233 20.5313Z" fill="white"/>
<path d="M35.2624 39.5024C35.2624 38.2192 34.2021 37.2146 32.9746 37.2146C32.1378 37.2146 31.4123 37.661 31.0215 38.2749V38.2192C31.0215 36.936 29.9613 35.9314 28.7338 35.9314C27.897 35.9314 27.1715 36.3779 26.7807 36.9917V36.936C26.7807 35.6528 25.7204 34.6483 24.4929 34.6483C23.6561 34.6483 22.9306 35.0947 22.5398 35.7085L22.5406 27.9524C22.5406 27.3386 22.3176 26.7249 21.8712 26.3345C21.4248 25.8881 20.867 25.665 20.2533 25.665C18.9701 25.665 17.9655 26.7253 17.9655 27.9528V42.2367C17.9655 42.3484 17.9099 42.4597 17.7425 42.5158C17.6308 42.5714 17.4634 42.5158 17.4078 42.4601L15.0643 40.1167C14.2832 39.3355 13 39.2238 12.1071 39.8376C11.549 40.2284 11.2143 40.7861 11.103 41.4555C10.9913 42.1249 11.2147 42.7947 11.6051 43.2968L17.4638 50.3271C19.1378 52.3357 21.5368 53.4516 24.1593 53.4516H27.6738C29.6824 53.4516 31.6355 52.6704 33.086 51.2199C34.5366 49.7693 35.3177 47.8719 35.3177 45.8076L35.2624 39.5024Z" fill="white"/>
</g>
<defs>
<clipPath id="clip0_471_1053">
<rect width="36" height="53" fill="white" transform="translate(0 0.5)"/>
</clipPath>
</defs>
</svg>
