<svg width="36" height="47" viewBox="0 0 36 47" fill="none" xmlns="http://www.w3.org/2000/svg">
<g clip-path="url(#clip0_471_1071)">
<path d="M35.4433 9.2757C35.4433 9.24221 35.4379 9.21417 35.432 9.18068C35.4266 9.14719 35.4208 9.1137 35.4153 9.08021C35.4098 9.04672 35.3986 9.01324 35.3873 8.9743C35.376 8.9521 35.3651 8.92406 35.3538 8.89602C35.3425 8.86254 35.3257 8.8236 35.3035 8.78426C35.2981 8.77297 35.2868 8.75623 35.2755 8.74532C35.2533 8.70054 35.2253 8.6616 35.1972 8.62266L28.9398 0.913157C28.8339 0.778807 28.6999 0.678342 28.5601 0.611371C28.5547 0.605919 28.5488 0.605919 28.5434 0.605919C28.4764 0.57243 28.404 0.550234 28.3312 0.533489C28.3257 0.528038 28.3144 0.528038 28.3031 0.528038C28.2307 0.511293 28.1637 0.505841 28.0909 0.505841C28.0854 0.505841 28.0796 0.500389 28.0741 0.500389L1.11641 0.5C0.502309 0.5 0 1.00234 0 1.61641V45.3836C0 46.0031 0.502339 46.5 1.11641 46.5H34.3326C34.9467 46.5 35.449 46.0031 35.449 45.3836L35.4494 9.32631C35.4494 9.30956 35.4433 9.29245 35.4433 9.2757ZM12.6556 27.5865L20.7334 8.57788C20.9791 8.00857 21.6322 7.7461 22.2015 7.98598C22.7654 8.22585 23.0333 8.88473 22.7934 9.45409L14.7101 28.4627C14.5314 28.8871 14.1182 29.1437 13.6828 29.1437C13.5376 29.1437 13.3927 29.1157 13.2475 29.0546C12.6836 28.8089 12.4153 28.1557 12.6556 27.5865ZM5.78326 17.7333L10.2214 13.2951C10.6567 12.8598 11.3658 12.8598 11.8012 13.2951C12.2366 13.7305 12.2366 14.4396 11.8012 14.875L8.15016 18.5202L11.8012 22.1654C12.2366 22.6008 12.2366 23.3098 11.8012 23.7453C11.5836 23.9629 11.2989 24.0689 11.0084 24.0689C10.7238 24.0689 10.4391 23.9629 10.2214 23.7453L5.7833 19.3071C5.57691 19.1008 5.4597 18.8157 5.4597 18.5201C5.4597 18.2242 5.57687 17.9396 5.78326 17.7333ZM17.1218 42.442H13.845V39.1652H10.5681V42.442H7.29124V39.1652H4.01439V35.8883H7.29124V39.1652H10.5681V35.8883H13.845V39.1652H17.1218V35.8883H20.3987V39.1652H17.1218V42.442ZM25.1214 42.442H20.3987L25.1214 35.8883C26.9303 35.8883 28.3983 37.3564 28.3983 39.1652C28.3983 40.9739 26.9302 42.442 25.1214 42.442ZM29.6658 19.3083L25.2277 23.7465C25.01 23.9641 24.7253 24.0759 24.4407 24.0759C24.1506 24.0759 23.8655 23.9641 23.6479 23.7465C23.2125 23.3111 23.2125 22.602 23.6479 22.1666L27.2931 18.5214L23.6479 14.8762C23.2125 14.4408 23.2125 13.7318 23.6479 13.2963C24.0891 12.861 24.7923 12.861 25.2277 13.2963L29.6658 17.7345C30.1012 18.1694 30.1012 18.8726 29.6658 19.3083Z" fill="white"/>
</g>
<defs>
<clipPath id="clip0_471_1071">
<rect width="36" height="46" fill="white" transform="translate(0 0.5)"/>
</clipPath>
</defs>
</svg>
