<svg width="46" height="47" viewBox="0 0 46 47" fill="none" xmlns="http://www.w3.org/2000/svg">
<g clip-path="url(#clip0_471_1073)">
<path d="M4.11833 5.91248C4.11833 5.15965 4.73926 4.54906 5.50507 4.54906H24.1471C24.9129 4.54906 25.5338 5.15962 25.5338 5.91248V28.901C25.5338 28.9347 25.5325 28.968 25.5302 29.0011L28.3983 30.803L29.6521 29.5575V1.51241C29.6521 0.953373 29.1913 0.5 28.6226 0.5H1.02958C0.461147 0.5 0 0.953381 0 1.51241V33.3017C0 33.8611 0.461164 34.3141 1.02958 34.3141H17.9393L15.4387 30.2647H5.5054C4.73961 30.2647 4.11866 29.6542 4.11866 28.901L4.11833 5.91248Z" fill="white"/>
<path d="M20.3811 25.7654L18.3611 24.4963C16.6481 23.42 14.7353 24.3249 14.0817 25.8095H9.82977C9.06397 25.8095 8.44336 25.1992 8.44336 24.4461V23.1235C8.44336 22.3704 9.06397 21.7598 9.82977 21.7598H20.0294C20.7952 21.7598 21.4161 22.3703 21.4161 23.1235V24.4461C21.4161 25.0796 20.9767 25.6125 20.3811 25.7654Z" fill="white"/>
<path d="M9.82977 15.2808C9.06397 15.2808 8.44336 15.8913 8.44336 16.6442V17.9671C8.44336 18.7199 9.06397 19.3305 9.82977 19.3305H20.0294C20.7952 19.3305 21.4161 18.7199 21.4161 17.9671V16.6442C21.4161 15.8914 20.7952 15.2808 20.0294 15.2808H9.82977Z" fill="white"/>
<path d="M9.82977 9.00342C9.06397 9.00342 8.44336 9.61366 8.44336 10.3668V11.6894C8.44336 12.4425 9.06397 13.0528 9.82977 13.0528H20.0294C20.7952 13.0528 21.4161 12.4426 21.4161 11.6894V10.3668C21.4161 9.61369 20.7952 9.00342 20.0294 9.00342H9.82977Z" fill="white"/>
<path fill-rule="evenodd" clip-rule="evenodd" d="M45.7456 17.4518C45.8674 17.3306 46.0648 17.4793 45.9776 17.6265L28.9169 46.4282C28.8605 46.5232 28.7215 46.5242 28.6635 46.4305L16.6611 26.9929C16.5801 26.8616 16.735 26.7129 16.8666 26.7955L28.6914 34.2247C28.7501 34.2613 28.8269 34.2529 28.8755 34.2043L45.7456 17.4518Z" fill="white"/>
</g>
<defs>
<clipPath id="clip0_471_1073">
<rect width="46" height="46" fill="white" transform="translate(0 0.5)"/>
</clipPath>
</defs>
</svg>
