<svg width="63" height="22" viewBox="0 0 63 22" fill="none" xmlns="http://www.w3.org/2000/svg">
<path d="M6.54552 20.2238L6.57825 20.3294H6.6888H9.92442H10.0328L10.0668 20.2266L14.4382 7.02903L18.7843 20.2263L18.8182 20.3294H18.9267H22.1884H22.2991L22.3318 20.2236L27.9941 1.86498L28.054 1.67078H27.8508H24.2759H24.1634L24.1319 1.77877L20.4332 14.4567L16.3558 1.77486L16.3223 1.67078H16.213H12.6643H12.5551L12.5215 1.77461L8.41839 14.4582L4.71922 1.77877L4.68771 1.67078H4.57522H1.00039H0.796875L0.857108 1.86517L6.54552 20.2238ZM39.9406 10.7311C41.6898 10.0481 42.9812 8.61646 42.9812 6.49729C42.9812 4.99361 42.3263 3.70177 41.183 2.78916C40.042 1.87839 38.4215 1.3501 36.4904 1.3501C33.3836 1.3501 31.255 2.76751 29.7964 4.64144L29.7171 4.74335L29.8061 4.83693L31.737 6.86787L31.8498 6.98654L31.9582 6.86377C33.1688 5.49206 34.4881 4.64307 36.2034 4.64307C38.0935 4.64307 39.3934 5.65464 39.3934 7.03175C39.3934 7.7837 39.0722 8.3588 38.5029 8.74851C37.9272 9.14267 37.0871 9.3534 36.0487 9.34026H36.0468H34.0376H33.8876V9.49026V12.3763V12.5283L34.0396 12.5263L36.0468 12.4996H36.0478C37.3003 12.4997 38.2318 12.7121 38.8457 13.1071C39.4498 13.4956 39.7587 14.0682 39.7587 14.8348C39.7587 15.5911 39.4467 16.2223 38.8828 16.6679C38.3158 17.1161 37.4839 17.3839 36.4382 17.3839C34.5556 17.3839 32.8732 16.5247 31.6459 15.1106L31.535 14.9828L31.4214 15.1083L29.4383 17.2996L29.3518 17.3952L29.4333 17.4951C30.9236 19.3212 33.3672 20.6501 36.5426 20.6501C38.5917 20.6501 40.2976 20.0814 41.4944 19.0995C42.6934 18.1159 43.3726 16.7239 43.3726 15.1021C43.3726 12.7288 41.7187 11.305 39.9406 10.7311ZM62.11 17.6095L62.2113 17.5011L62.104 17.3986L59.8077 15.2073L59.6932 15.0981L59.5903 15.2183C58.4931 16.4986 56.9414 17.3037 55.2421 17.3037C52.0188 17.3037 49.2862 14.4393 49.2862 10.9867C49.2862 7.56133 52.0185 4.69651 55.2421 4.69651C56.9159 4.69651 58.4929 5.50203 59.563 6.78062L59.6658 6.90345L59.7817 6.79282L62.104 4.57482L62.2121 4.47162L62.1093 4.36316C60.3612 2.51872 57.9222 1.3501 55.2421 1.3501C50.044 1.3501 45.6723 5.7473 45.6723 10.9867C45.6723 16.2256 50.0435 20.6501 55.2421 20.6501C57.9224 20.6501 60.3617 19.4813 62.11 17.6095Z" fill="white" stroke="white" stroke-width="0.3"/>
</svg>
