<svg width="47" height="47" viewBox="0 0 47 47" fill="none" xmlns="http://www.w3.org/2000/svg">
<g clip-path="url(#clip0_471_1064)">
<path d="M41.0196 19.7399V18.3239C41.0196 8.50855 33.011 0.5 23.1957 0.5C13.3803 0.5 5.37177 8.50855 5.37177 18.3239V19.7399C2.24648 20.912 0 23.9395 0 27.4554C0 31.9967 3.71119 35.7082 8.2528 35.7082H11.2316C12.013 35.7082 12.6476 35.0733 12.6476 34.2923V20.6191C12.6476 19.8377 12.0126 19.2032 11.2316 19.2032H9.86428V18.3244C9.86428 10.9507 15.8219 4.99304 23.1956 4.99304C30.5693 4.99304 36.5269 10.9506 36.5269 18.3244V19.2032H35.1596C34.3782 19.2032 33.7436 19.8381 33.7436 20.6191V34.2923C33.7436 35.0737 34.3785 35.7082 35.1596 35.7082H35.7945C34.3785 38.98 31.2533 41.2752 27.5417 41.5681C27.3465 40.6402 26.5161 39.9079 25.4907 39.9079H20.8517C19.6797 39.9079 18.7521 40.8358 18.7521 42.0075V44.4004C18.7521 45.5724 19.68 46.5 20.8517 46.5H25.4907C26.5164 46.5 27.3952 45.7677 27.5417 44.742C33.0599 44.4491 37.6501 40.6889 39.2127 35.6103C43.2172 35.0731 46.3425 31.6059 46.3425 27.4553C46.3912 23.8909 44.1449 20.912 41.0196 19.7399Z" fill="white"/>
<path d="M20.4616 19.2515C20.4616 18.4701 20.8035 17.6887 21.4381 17.1519C22.073 16.6147 22.8541 16.4195 23.6846 16.566C24.7589 16.7612 25.6868 17.6403 25.8333 18.7147C26.1263 20.2775 25.101 21.4493 23.9776 21.7913C22.4148 22.2797 21.3895 23.7444 21.3895 25.4537V26.9674C21.3895 27.944 22.1709 28.7254 23.1474 28.7254C24.124 28.7254 24.9054 27.944 24.9054 26.9674V25.4537C24.9054 25.3072 25.0032 25.1608 25.0519 25.1608C28.0307 24.1842 29.8374 21.2054 29.3002 18.0801C28.8608 15.5407 26.8099 13.4898 24.2705 13.0503C22.4147 12.7084 20.5593 13.1968 19.143 14.4177C17.727 15.5897 16.8965 17.3478 16.8965 19.2032C16.8965 20.1797 17.6779 20.9612 18.6545 20.9612C19.6801 21.0095 20.4616 20.228 20.4616 19.2515Z" fill="white"/>
<path d="M25.1 32.1432C25.1 33.1951 24.2474 34.0477 23.1955 34.0477C22.1436 34.0477 21.291 33.1951 21.291 32.1432C21.291 31.0914 22.1436 30.2388 23.1955 30.2388C24.2474 30.2388 25.1 31.0914 25.1 32.1432Z" fill="white"/>
</g>
<defs>
<clipPath id="clip0_471_1064">
<rect width="47" height="46" fill="white" transform="translate(0 0.5)"/>
</clipPath>
</defs>
</svg>
