<svg width="30" height="30" viewBox="0 0 30 30" fill="none" xmlns="http://www.w3.org/2000/svg">
<g clip-path="url(#clip0_100_1346)">
<path d="M20.0483 19.7699L20.0465 19.7771L20.0449 19.7843C19.587 21.8655 18.5282 23.7665 17 25.2514C16.9465 25.2986 16.8792 25.3273 16.8082 25.3334L11.8249 25.3334L11.8201 25.3334C9.39331 25.3565 7.0382 24.5113 5.17976 22.9505L5.0403 22.8334L4.85819 22.8334L2.6082 22.8334L2.6082 22.8334L2.60245 22.8334C2.50224 22.8346 2.40539 22.7973 2.33185 22.7292C2.26151 22.664 2.21761 22.5755 2.20819 22.4804L2.20819 10.9281C2.21761 10.833 2.26151 10.7444 2.33186 10.6793C2.40539 10.6112 2.50224 10.5739 2.60245 10.575L2.60245 10.5751L2.6082 10.5751L4.20819 10.5751L4.42772 10.5751L4.57629 10.4135C5.15171 9.78751 5.82401 9.25814 6.56746 8.8456L6.56752 8.84571L6.57703 8.84016C7.55127 8.27115 8.62274 7.8881 9.7369 7.7105L9.87437 7.68859L9.98073 7.5988L14.5807 3.71546L14.5928 3.70531L14.6041 3.69442C15.0816 3.23694 15.7208 2.98724 16.3819 2.99998L16.3819 3.00005L16.3902 3.00007C16.7325 3.00094 17.0711 3.0705 17.3861 3.2046C17.701 3.33871 17.9858 3.53465 18.2236 3.78081L18.2236 3.78082L18.2263 3.78353C18.7107 4.2774 18.9821 4.9416 18.9821 5.6334C18.9821 6.32492 18.7109 6.98886 18.2269 7.48266C18.2267 7.48286 18.2265 7.48307 18.2263 7.48327L16.9108 8.81541L16.0701 9.66674L17.2665 9.66674L25.5907 9.66674C26.2042 9.6903 26.7838 9.95471 27.2037 10.4028C27.6255 10.8529 27.8519 11.4518 27.8334 12.0684L27.833 12.0834L27.8334 12.0984C27.8519 12.715 27.6255 13.3139 27.2037 13.764L27.5685 14.1059L27.2037 13.764C26.7838 14.2121 26.2042 14.4765 25.5907 14.5001L21.1832 14.5001L20.6921 14.5001L20.6833 14.9911C20.6543 16.603 20.4412 18.2063 20.0483 19.7699ZM13.1005 9.66673L14.9082 9.66674L15.1153 9.66674L15.2617 9.52029L17.7617 7.02029L17.7618 7.0203L17.7644 7.01759C18.1268 6.64966 18.3299 6.15398 18.3299 5.63757C18.3299 5.12116 18.1268 4.62547 17.7644 4.25755L17.7641 4.25719C17.5858 4.07652 17.3734 3.93307 17.1392 3.83516C16.905 3.73725 16.6537 3.68683 16.3999 3.68683C16.146 3.68683 15.8947 3.73725 15.6605 3.83516C15.4338 3.92995 15.2275 4.06742 15.0528 4.24002L10.2218 8.32401C10.2214 8.32434 10.221 8.32466 10.2206 8.32499C10.1653 8.37058 10.0967 8.39713 10.0251 8.40068L10.0066 8.4016L9.98818 8.40389C8.88819 8.54063 7.82791 8.90123 6.87268 9.46341C6.10359 9.87048 5.42329 10.4267 4.87153 11.0997L4.85688 11.1176L4.84395 11.1367C4.81337 11.182 4.77215 11.219 4.72391 11.2446C4.67567 11.2702 4.62188 11.2835 4.56728 11.2834L4.56653 11.2834L3.33319 11.2834L2.83319 11.2834L2.83319 11.7834L2.83319 21.6667L2.83319 22.1667L3.33319 22.1667L5.09526 22.1667C5.19338 22.1853 5.28212 22.238 5.34554 22.3159L5.3733 22.3499L5.40659 22.3787C7.17705 23.906 9.45162 24.7214 11.7891 24.6667L16.4749 24.6667L16.6944 24.6667L16.843 24.5051C17.4483 23.8464 17.9598 23.1073 18.3629 22.3087L18.729 21.5834L17.9165 21.5834L14.5627 21.5834L14.6356 21.2501L18.5249 21.2501L18.8694 21.2501L18.9921 20.9281C19.1575 20.4939 19.2993 20.0511 19.4169 19.6016L19.4176 19.599C19.5124 19.2285 19.5894 18.8685 19.6573 18.5208L19.7735 17.9251L19.1665 17.9251L15.3294 17.9251L15.4023 17.5917L19.3582 17.5917L19.8 17.5917L19.8544 17.1533C19.9427 16.442 19.994 15.7266 20.0081 15.0099L20.0182 14.5001L19.5082 14.5001L16.0271 14.5001L16.1705 13.8334L25.5999 13.8334L25.6241 13.8334L25.6482 13.8311C26.0822 13.7889 26.4829 13.58 26.7659 13.2483C27.0423 12.9244 27.1854 12.5081 27.1672 12.0834C27.1854 11.6587 27.0423 11.2424 26.7659 10.9185C26.4829 10.5868 26.0822 10.3779 25.6482 10.3357L25.6241 10.3334L25.5999 10.3334L13.4339 10.3334L13.1005 9.66673Z" stroke="white"/>
</g>
<defs>
<clipPath id="clip0_100_1346">
<rect width="30" height="30" fill="white" transform="translate(30) rotate(90)"/>
</clipPath>
</defs>
</svg>
