<svg width="47" height="47" viewBox="0 0 47 47" fill="none" xmlns="http://www.w3.org/2000/svg">
<g clip-path="url(#clip0_471_1051)">
<path d="M22.9619 0.583783C22.127 0.583783 21.3759 1.33486 21.4598 2.16983V2.25308V8.01254C21.3766 8.84746 21.9605 9.59858 22.7954 9.76567C23.6304 9.84892 24.3815 9.26495 24.5486 8.43004V8.01258V2.25313C24.6318 1.41821 23.964 0.583915 23.1297 0.5C23.0453 0.583841 22.9619 0.583783 22.9619 0.583783ZM22.9619 12.6033C16.9522 12.6033 12.0278 17.4445 12.0278 23.5375C12.0278 29.6306 16.9522 34.4717 22.9619 34.4717C28.9716 34.4717 33.8961 29.5472 33.8961 23.5375C33.8129 17.5278 28.9716 12.6865 22.9619 12.6033ZM22.9619 16.109C27.052 16.109 30.3906 19.4474 30.3906 23.5377C30.3906 27.6279 27.0522 30.9663 22.9619 30.9663V16.109ZM1.76102 22.0355C0.926104 21.9523 0.174981 22.5363 0.00789593 23.3712C-0.0753621 24.2061 0.508614 24.9572 1.34352 25.1243H1.76098H7.52043C8.35535 25.2076 9.10648 24.6236 9.27356 23.7887C9.35682 22.9538 8.77284 22.2026 7.93794 22.0355H7.52048H1.76102ZM38.487 22.0355C37.6521 21.9523 36.901 22.5363 36.7339 23.3712C36.6506 24.2061 37.2346 24.9572 38.0695 25.1243H38.487H44.2464C45.0813 25.2076 45.8325 24.6236 45.9996 23.7887C46.0828 22.9538 45.4988 22.2026 44.6639 22.0355H44.2465H38.487ZM22.9619 37.3102C22.127 37.3102 21.3759 38.0613 21.4598 38.8963V38.9795V44.739C21.3766 45.5739 21.9605 46.325 22.7954 46.4921C23.6304 46.5754 24.3815 45.9914 24.5486 45.1565V44.739V38.9796C24.6318 38.1446 23.964 37.3104 23.1297 37.2264C23.0453 37.3103 22.9619 37.3102 22.9619 37.3102ZM39.1548 7.26168C38.4869 6.59386 37.4016 6.59386 36.7345 7.26168L32.6444 11.3518C31.9766 12.0196 31.9766 13.1049 32.6444 13.772C33.3122 14.4399 34.3975 14.4399 35.0647 13.772L39.1548 9.68196C39.9058 9.09798 39.9058 8.01275 39.1548 7.26168C39.238 7.34494 39.238 7.34494 39.1548 7.26168ZM9.10623 7.26168C8.43841 6.59386 7.35309 6.59386 6.68595 7.26168C6.01813 7.9295 6.01813 9.01481 6.68595 9.68196L10.776 13.772C11.4439 14.4399 12.5292 14.4399 13.1963 13.772C13.8641 13.1042 13.8641 12.0189 13.1963 11.3518L9.10623 7.26168ZM35.1483 33.3038C34.4805 32.6359 33.3952 32.6359 32.728 33.3038C32.0602 33.9716 32.0602 35.0569 32.728 35.724L36.8181 39.8141C37.4859 40.4819 38.5712 40.4819 39.2384 39.8141C39.9062 39.1463 39.9062 38.061 39.2384 37.3938L35.1483 33.3038ZM13.1962 33.3038C12.5283 32.6359 11.443 32.6359 10.7759 33.3038L6.6858 37.3938C6.01798 38.0617 6.01798 39.147 6.6858 39.8141C7.35362 40.4819 8.43893 40.4819 9.10608 39.8141L13.1962 35.724C13.864 35.0568 13.864 33.9715 13.1962 33.3038Z" fill="white"/>
</g>
<defs>
<clipPath id="clip0_471_1051">
<rect width="47" height="46" fill="white" transform="translate(0 0.5)"/>
</clipPath>
</defs>
</svg>
