<svg width="35" height="36" viewBox="0 0 35 36" fill="none" xmlns="http://www.w3.org/2000/svg">
<g clip-path="url(#clip0_471_1047)">
<path d="M1.35373 12.8757L16.5313 20.3574C17.0896 20.6313 17.7208 20.6313 18.2791 20.3574L33.4567 12.8757C33.9951 12.6116 34.4218 12.1143 34.6438 11.4911C34.8659 10.8683 34.8659 10.1694 34.6438 9.54616C34.4218 8.92288 33.9951 8.42558 33.4567 8.16158L18.2791 0.705749C17.7208 0.431417 17.0895 0.431417 16.5313 0.705749L1.35373 8.18697C0.815249 8.45103 0.388586 8.94832 0.166543 9.57156C-0.0554994 10.1948 -0.0555293 10.8937 0.166543 11.517C0.388616 12.1398 0.815279 12.6375 1.35373 12.9015V12.8757Z" fill="white"/>
<path d="M31.7082 23.1241L17.4043 30.1187L3.10037 23.1241C2.36894 22.7648 1.52607 22.8819 0.889786 23.4315C0.253474 23.9815 -0.0796345 24.88 0.016255 25.7887C0.111761 26.6975 0.62112 27.4789 1.35292 27.8382L16.5305 35.294C17.0888 35.5684 17.72 35.5684 18.2783 35.294L33.4559 27.8128C34.0522 27.5917 34.5402 27.0912 34.7996 26.4349C35.0589 25.7785 35.0663 25.0266 34.819 24.364C34.5721 23.7014 34.0938 23.189 33.5017 22.953C32.9096 22.7171 32.2584 22.7792 31.7082 23.1241Z" fill="white"/>
<path d="M31.7082 15.6427L17.4043 22.6696L3.10037 15.6235C2.36894 15.2642 1.52607 15.3817 0.889786 15.9313C0.253474 16.4809 -0.0796345 17.3794 0.016255 18.2886C0.111761 19.1974 0.62112 19.9788 1.35292 20.3381L16.5305 27.8131C17.0888 28.087 17.7201 28.087 18.2783 27.8131L33.4559 20.3573C34.1877 19.9981 34.697 19.2166 34.7925 18.3078C34.8884 17.3986 34.5553 16.5 33.919 15.9505C33.2827 15.4009 32.4396 15.2834 31.7082 15.6427Z" fill="white"/>
</g>
<defs>
<clipPath id="clip0_471_1047">
<rect width="35" height="35" fill="white" transform="translate(0 0.5)"/>
</clipPath>
</defs>
</svg>
