<svg width="98" height="35" viewBox="0 0 98 35" fill="none" xmlns="http://www.w3.org/2000/svg">
<path d="M1.51172 2.19824H0.761719V2.94824V32.5V33.25H1.51172H5.08008H5.83008V32.5V22.5039H10.5146C13.3997 22.5039 15.7591 22.2003 17.5554 21.5577C19.3791 20.9053 20.7633 19.823 21.6441 18.2932C22.5133 16.7835 22.9131 14.7984 22.9131 12.4023C22.9131 9.8618 22.5534 7.80604 21.7598 6.30982C20.9455 4.76057 19.5883 3.69033 17.7681 3.07843C15.9998 2.47942 13.5669 2.19824 10.5146 2.19824H1.51172ZM28.733 2.19824H27.7784L28.0043 3.12574L35.2025 32.6775L35.342 33.25H35.9312H40.3199H40.9114L41.0492 32.6748L46.7421 8.92264L52.2219 32.6686L52.3561 33.25H52.9527H57.3414H57.9302L58.0699 32.678L65.2887 3.12622L65.5154 2.19824H64.5601H61.1968H60.5988L60.4657 2.78127L55.0694 26.4114L54.2604 22.6227L54.2577 22.6108L49.6845 2.77971L49.5504 2.19824H48.9537H44.3394H43.7436L43.6088 2.77866L39.0151 22.5687L39.013 22.5779L39.011 22.5872L38.2351 26.3597L32.8273 2.78058L32.6937 2.19824H32.0963H28.733ZM80.297 2.19824H79.7785L79.5953 2.68335L68.4391 32.2351L68.0559 33.25H69.1407H72.7706H73.2895L73.4725 32.7644L76.0786 25.8467H88.7824L91.4083 32.7661L91.5919 33.25H92.1095H95.7189H96.8086L96.4194 32.2321L85.1196 2.68038L84.9352 2.19824H84.4191H80.297ZM15.4482 17.5282C14.4062 17.8383 12.7784 18.0098 10.5146 18.0098H5.83008V6.58984H10.5146C12.7774 6.58984 14.402 6.76811 15.4403 7.08951C16.4307 7.39605 17.0559 7.91556 17.4132 8.61967C17.7978 9.37757 18.0293 10.6095 18.0293 12.4023C18.0293 14.1387 17.7981 15.326 17.4175 16.0537C17.0645 16.7284 16.4431 17.2321 15.4482 17.5282ZM77.5905 21.4551L82.3744 8.16089L87.2422 21.4551H77.5905Z" fill="white" stroke="white" stroke-width="1.5"/>
</svg>
