<svg width="39" height="39" viewBox="0 0 39 39" fill="none" xmlns="http://www.w3.org/2000/svg">
<g clip-path="url(#clip0_471_1056)">
<path d="M15.5435 28.1361C15.0854 28.1361 14.6462 27.9539 14.3224 27.63C13.9982 27.3062 13.8164 26.8669 13.8164 26.4087V2.22816C13.8164 1.61111 14.1457 1.0409 14.6801 0.732374C15.2144 0.423844 15.8728 0.423844 16.4072 0.732374C16.9415 1.0409 17.2709 1.6111 17.2709 2.22816V26.4087C17.2709 26.867 17.0887 27.3062 16.7649 27.63C16.441 27.9539 16.0017 28.1361 15.5435 28.1361Z" fill="white"/>
<path d="M24.1802 28.1361C23.7222 28.1361 23.2826 27.9539 22.9588 27.63C22.6349 27.3062 22.4531 26.8669 22.4531 26.4087V2.22816C22.4531 1.61111 22.7821 1.0409 23.3165 0.732374C23.8508 0.423844 24.5095 0.423844 25.0439 0.732374C25.5782 1.0409 25.9073 1.6111 25.9073 2.22816V26.4087C25.9073 26.867 25.7254 27.3062 25.4016 27.63C25.0777 27.9539 24.6382 28.1361 24.1802 28.1361Z" fill="white"/>
<path d="M13.9211 16.0449H12.954C10.1772 16.0449 7.61127 14.5635 6.22304 12.1587C4.83451 9.7541 4.83451 6.79109 6.22304 4.38622C7.61127 1.98165 10.1772 0.5 12.954 0.5H31.0897C31.7067 0.5 32.2769 0.829345 32.5855 1.3637C32.894 1.89806 32.894 2.55644 32.5855 3.09082C32.2769 3.62518 31.7067 3.95452 31.0897 3.95452H12.954C11.4113 3.95452 9.98579 4.77744 9.21461 6.11363C8.44314 7.44953 8.44314 9.09566 9.21461 10.4316C9.98579 11.7675 11.4113 12.5907 12.954 12.5907H13.9211C14.5382 12.5907 15.1084 12.9197 15.4169 13.4541C15.7255 13.9884 15.7255 14.6471 15.4169 15.1815C15.1084 15.7159 14.5382 16.0449 13.9211 16.0449Z" fill="white"/>
<path d="M31.0888 38.4997C30.63 38.5023 30.1887 38.3222 29.8626 37.9986C29.5355 37.6745 29.3516 37.2329 29.3516 36.7724C29.3516 36.312 29.5355 35.8705 29.8626 35.5461L33.8353 31.5907L29.8626 27.6354C29.4245 27.1973 29.2533 26.5588 29.4138 25.9603C29.5743 25.3617 30.0416 24.8945 30.6401 24.734C31.2386 24.5735 31.8771 24.7447 32.3151 25.1828L37.4968 30.3644C37.8238 30.6888 38.0077 31.1304 38.0077 31.5907C38.0077 32.0513 37.8238 32.4929 37.4968 32.817L32.3151 37.9986C31.9893 38.3222 31.548 38.5023 31.0888 38.4997Z" fill="white"/>
<path d="M36.2709 33.3178H1.72719C1.11014 33.3178 0.539926 32.9884 0.231397 32.4541C-0.0771323 31.9197 -0.0771323 31.2613 0.231397 30.727C0.539926 30.1926 1.11013 29.8633 1.72719 29.8633H36.2709C36.888 29.8633 37.4582 30.1926 37.7667 30.727C38.0752 31.2613 38.0752 31.9197 37.7667 32.4541C37.4582 32.9884 36.888 33.3178 36.2709 33.3178Z" fill="white"/>
</g>
<defs>
<clipPath id="clip0_471_1056">
<rect width="39" height="38" fill="white" transform="translate(0 0.5)"/>
</clipPath>
</defs>
</svg>
