<svg width="16" height="17" viewBox="0 0 16 17" fill="none" xmlns="http://www.w3.org/2000/svg">
<g clip-path="url(#clip0_471_1043)">
<path d="M2 0.5C1.46957 0.5 0.960859 0.710714 0.585786 1.08579C0.210714 1.46086 0 1.96957 0 2.5V5.5C0 6.03043 0.210714 6.53914 0.585786 6.91421C0.960859 7.28929 1.46957 7.5 2 7.5H5C5.53043 7.5 6.03914 7.28929 6.41421 6.91421C6.78929 6.53914 7 6.03043 7 5.5V2.5C7 1.96957 6.78929 1.46086 6.41421 1.08579C6.03914 0.710714 5.53043 0.5 5 0.5H2ZM11 0.5C10.4696 0.5 9.96086 0.710714 9.58579 1.08579C9.21071 1.46086 9 1.96957 9 2.5V5.5C9 6.03043 9.21071 6.53914 9.58579 6.91421C9.96086 7.28929 10.4696 7.5 11 7.5H14C14.5304 7.5 15.0391 7.28929 15.4142 6.91421C15.7893 6.53914 16 6.03043 16 5.5V2.5C16 1.96957 15.7893 1.46086 15.4142 1.08579C15.0391 0.710714 14.5304 0.5 14 0.5H11ZM0 11.5C0 10.9696 0.210714 10.4609 0.585786 10.0858C0.960859 9.71071 1.46957 9.5 2 9.5H5C5.53043 9.5 6.03914 9.71071 6.41421 10.0858C6.78929 10.4609 7 10.9696 7 11.5V14.5C7 15.0304 6.78929 15.5391 6.41421 15.9142C6.03914 16.2893 5.53043 16.5 5 16.5H2C1.46957 16.5 0.960859 16.2893 0.585786 15.9142C0.210714 15.5391 0 15.0304 0 14.5V11.5ZM11 9.5C10.4696 9.5 9.96086 9.71071 9.58579 10.0858C9.21071 10.4609 9 10.9696 9 11.5V14.5C9 15.0304 9.21071 15.5391 9.58579 15.9142C9.96086 16.2893 10.4696 16.5 11 16.5H14C14.5304 16.5 15.0391 16.2893 15.4142 15.9142C15.7893 15.5391 16 15.0304 16 14.5V11.5C16 10.9696 15.7893 10.4609 15.4142 10.0858C15.0391 9.71071 14.5304 9.5 14 9.5H11Z" fill="white"/>
</g>
<defs>
<clipPath id="clip0_471_1043">
<rect width="16" height="16" fill="white" transform="translate(0 0.5)"/>
</clipPath>
</defs>
</svg>
