<svg width="47" height="48" viewBox="0 0 47 48" fill="none" xmlns="http://www.w3.org/2000/svg">
<g clip-path="url(#clip0_471_1087)">
<path fill-rule="evenodd" clip-rule="evenodd" d="M32.7574 30.0824L29.8827 27.2077C28.9652 28.3975 27.8972 29.4655 26.7074 30.383L29.5821 33.2577C29.1268 34.0459 29.2353 35.0762 29.9074 35.748L41.0572 46.8978C41.8587 47.6992 43.1699 47.6992 43.9713 46.8978L46.3974 44.4716C47.1989 43.6702 47.1989 42.359 46.3974 41.5576L35.2476 30.4077C34.5755 29.7356 33.5452 29.6271 32.7574 30.0824ZM11.3887 16.958L15.4174 12.6989C15.115 12.2371 14.9384 11.685 14.9384 11.0918C14.9384 9.46954 16.2535 8.1548 17.8753 8.1548C19.4976 8.1548 20.8123 9.47 20.8123 11.0918C20.8123 11.2319 20.8023 11.3694 20.7833 11.5042L27.9202 14.324C28.4515 13.5681 29.3303 13.0737 30.3253 13.0737C30.8989 13.0737 31.4337 13.2385 31.8865 13.5226L38.3331 7.20029C38.0673 6.75855 37.9143 6.24086 37.9143 5.68735C37.9143 4.0651 39.2295 2.75036 40.8513 2.75036C42.4736 2.75036 43.7883 4.06556 43.7883 5.68735C43.7883 7.30961 42.4731 8.62435 40.8513 8.62435C40.2777 8.62435 39.7428 8.45955 39.29 8.17545L32.8446 14.4988C33.1104 14.9405 33.2634 15.4582 33.2634 16.0117C33.2634 17.6339 31.9482 18.9487 30.3264 18.9487C28.7041 18.9487 27.3894 17.6335 27.3894 16.0117C27.3894 15.8716 27.3994 15.734 27.4184 15.5993L20.2815 12.7794C19.7502 13.5354 18.8714 14.0298 17.8764 14.0298C17.3416 14.0298 16.84 13.8869 16.4079 13.6372L12.3792 17.8962C12.6816 18.358 12.8582 18.9101 12.8582 19.5033C12.8582 21.1256 11.543 22.4403 9.92123 22.4403C8.29897 22.4403 6.98424 21.1251 6.98424 19.5033C6.98424 17.8811 8.29943 16.5663 9.92123 16.5663C10.4554 16.5653 10.957 16.7086 11.3887 16.958ZM16.068 0.500624C23.2984 0.500624 29.4135 5.27697 31.4303 11.8467C31.0724 11.7521 30.7023 11.7038 30.3272 11.7038C29.3015 11.7038 28.3274 12.067 27.5611 12.7083L26.9245 12.4568C25.265 8.07631 21.0303 4.96121 16.0681 4.96121C9.65806 4.96121 4.46158 10.1578 4.46158 16.5678C4.46158 22.9778 9.65815 28.1743 16.0681 28.1743C21.5879 28.1743 26.2072 24.3212 27.3839 19.1579C28.1542 19.8787 29.1893 20.3201 30.3263 20.3201C30.8251 20.3201 31.3037 20.2352 31.749 20.0794C30.1472 27.2643 23.7351 32.6352 16.0676 32.6352C7.19414 32.6352 0 25.4416 0 16.5676C0.000716479 7.6934 7.19409 0.500624 16.068 0.500624Z" fill="white"/>
</g>
<defs>
<clipPath id="clip0_471_1087">
<rect width="47" height="47" fill="white" transform="translate(0 0.5)"/>
</clipPath>
</defs>
</svg>
