<svg width="52" height="53" viewBox="0 0 52 53" fill="none" xmlns="http://www.w3.org/2000/svg">
<g clip-path="url(#clip0_471_1098)">
<path fill-rule="evenodd" clip-rule="evenodd" d="M51.9575 25C51.2277 12.1701 41.1953 1.8298 28.5 0.618641V25H51.9575ZM52 26.5H28.5H27V25V0.518877C26.6682 0.50633 26.3349 0.5 26 0.5C11.6406 0.5 0 12.1406 0 26.5C0 40.8594 11.6406 52.5 26 52.5C40.3594 52.5 52 40.8594 52 26.5Z" fill="white"/>
<path d="M13.4944 41.5C15.3654 41.5 16.6333 40.4353 16.6333 38.7884C16.6333 36.9917 15.1798 36.4926 13.8346 36.0933C12.6131 35.7107 12.1956 35.5444 12.1956 34.9954C12.1956 34.5129 12.7059 34.2301 13.3707 34.2301C14.0665 34.2301 14.886 34.4963 15.6437 35.012L16.4322 33.5314C15.5664 32.9159 14.4686 32.5 13.3707 32.5C11.5926 32.5 10.3556 33.598 10.3556 35.2116C10.3711 36.7421 11.4689 37.2745 13.2007 37.7569C14.1129 38.0231 14.8087 38.2394 14.8087 38.9048C14.8087 39.4372 14.283 39.7865 13.5254 39.7865C12.5203 39.7865 11.6235 39.3872 10.8504 38.7884L10 40.2024C10.9587 41.0342 12.2729 41.5 13.4944 41.5Z" fill="#01AA85"/>
<path d="M22.2773 41.5C23.5452 41.5 24.6121 40.9344 25.3852 40.0527L24.1173 38.8715C23.6689 39.4205 22.9886 39.7699 22.2928 39.7699C20.9785 39.7699 19.8807 38.5055 19.8807 36.9917C19.8807 35.4945 20.9785 34.2301 22.2928 34.2301C22.9731 34.2301 23.638 34.5795 24.0709 35.0952L25.3388 33.8974C24.5812 33.049 23.5143 32.5 22.3083 32.5C19.9735 32.5 18.0098 34.5462 18.0098 36.9917C18.0098 39.4372 19.9735 41.5 22.2773 41.5Z" fill="#01AA85"/>
<path d="M29.9749 41.5C31.8458 41.5 33.1137 40.4353 33.1137 38.7884C33.1137 36.9917 31.6603 36.4926 30.3151 36.0933C29.0936 35.7107 28.6761 35.5444 28.6761 34.9954C28.6761 34.5129 29.1863 34.2301 29.8512 34.2301C30.547 34.2301 31.3665 34.4963 32.1241 35.012L32.9127 33.5314C32.0468 32.9159 30.949 32.5 29.8512 32.5C28.0731 32.5 26.8361 33.598 26.8361 35.2116C26.8516 36.7421 27.9494 37.2745 29.6811 37.7569C30.5934 38.0231 31.2892 38.2394 31.2892 38.9048C31.2892 39.4372 30.7635 39.7865 30.0058 39.7865C29.0008 39.7865 28.104 39.3872 27.3309 38.7884L26.4805 40.2024C27.4391 41.0342 28.7534 41.5 29.9749 41.5Z" fill="#01AA85"/>
<path d="M37.8617 41.5C39.7326 41.5 41.0005 40.4353 41.0005 38.7884C41.0005 36.9917 39.5471 36.4926 38.2019 36.0933C36.9803 35.7107 36.5629 35.5444 36.5629 34.9954C36.5629 34.5129 37.0731 34.2301 37.738 34.2301C38.4338 34.2301 39.2533 34.4963 40.0109 35.012L40.7995 33.5314C39.9336 32.9159 38.8358 32.5 37.738 32.5C35.9598 32.5 34.7229 33.598 34.7229 35.2116C34.7383 36.7421 35.8361 37.2745 37.5679 37.7569C38.4802 38.0231 39.176 38.2394 39.176 38.9048C39.176 39.4372 38.6503 39.7865 37.8926 39.7865C36.8876 39.7865 35.9908 39.3872 35.2177 38.7884L34.3672 40.2024C35.3259 41.0342 36.6402 41.5 37.8617 41.5Z" fill="#01AA85"/>
</g>
<defs>
<clipPath id="clip0_471_1098">
<rect width="52" height="52" fill="white" transform="translate(0 0.5)"/>
</clipPath>
</defs>
</svg>
