<svg width="41" height="48" viewBox="0 0 41 48" fill="none" xmlns="http://www.w3.org/2000/svg">
<g clip-path="url(#clip0_471_1104)">
<path d="M3.11886 26.0425V29.7812H6.74202V26.0425H8.93631V35.7719H6.74202V31.701H3.11886V35.7719H0.910156V26.0425H3.11886Z" fill="white"/>
<path d="M12.7317 27.8903H10.1191V26.0425H17.5969V27.8903H14.9408V35.7721H12.7321L12.7317 27.8903Z" fill="white"/>
<path d="M26.937 32.0482C26.8938 30.8789 26.8503 29.4644 26.8503 28.0496H26.8071C26.504 29.2909 26.0999 30.6765 25.7245 31.8171L24.5407 35.6134H22.8229L21.7835 31.8458C21.4661 30.7053 21.1339 29.3197 20.9028 28.0496H20.874C20.8164 29.3633 20.7729 30.8644 20.7009 32.0769L20.5278 35.7724H18.4922L19.113 26.043H22.0434L22.9961 29.2908C23.2991 30.4169 23.6025 31.6294 23.8188 32.7699H23.862C24.1362 31.6439 24.4684 30.3593 24.7858 29.2764L25.8252 26.043H28.6976L29.2321 35.7724H27.0809L26.937 32.0482Z" fill="white"/>
<path d="M30.9219 26.0425H33.1306V33.9244H36.9992V35.7721H30.9219V26.0425Z" fill="white"/>
<path d="M26.7502 11.195H33.7618C31.6578 8.24138 27.5411 3.56083 25.2129 1.51416V9.43006C25.2126 10.4033 25.9022 11.195 26.7502 11.195Z" fill="white"/>
<path d="M35.0796 19.7315V13.7033H26.75C24.697 13.7033 23.0264 11.7865 23.0264 9.43014V0.5H2.63087C1.17778 0.5 0 1.85163 0 3.51936V12.8123H0.00556354V21.657H39.074V39.7711H0.00640152V44.3152C0.0640005 45.9237 1.21535 47.2085 2.63174 47.2085H32.45C33.9031 47.2085 35.0805 45.8566 35.0805 44.1895V41.696H40.9998V19.7322L35.0796 19.7315Z" fill="white"/>
</g>
<defs>
<clipPath id="clip0_471_1104">
<rect width="41" height="47" fill="white" transform="translate(0 0.5)"/>
</clipPath>
</defs>
</svg>
