<svg width="37" height="51" viewBox="0 0 37 51" fill="none" xmlns="http://www.w3.org/2000/svg">
<path d="M36.1674 13.2623V37.787C36.1674 47.5969 33.9695 50.0493 25.1776 50.0493H11.9898C3.19797 50.0493 1 47.5969 1 37.787V13.2623C1 3.45247 3.19797 1 11.9898 1H25.1776C33.9695 1 36.1674 3.45247 36.1674 13.2623Z" stroke="#8D9AAD" stroke-width="1.5" stroke-linecap="round" stroke-linejoin="round"/>
<path d="M23.6736 9.58398H13.8638" stroke="#8D9AAD" stroke-width="1.5" stroke-linecap="round" stroke-linejoin="round"/>
<path d="M18.7686 42.9376C20.868 42.9376 22.5699 41.2357 22.5699 39.1363C22.5699 37.0369 20.868 35.335 18.7686 35.335C16.6692 35.335 14.9673 37.0369 14.9673 39.1363C14.9673 41.2357 16.6692 42.9376 18.7686 42.9376Z" stroke="#8D9AAD" stroke-width="1.5" stroke-linecap="round" stroke-linejoin="round"/>
</svg>
